HIERARCHY
ROOT Hips
{
	OFFSET 0.000000 0.000000 0.000000
	CHANNELS 6 Xposition Yposition Zposition Zrotation Yrotation Xrotation 
	JOINT LHipJoint
	{
		OFFSET 0.000000 0.000000 0.000000
		CHANNELS 3 Zrotation Yrotation Xrotation
		JOINT LeftUpLeg
		{
			OFFSET 1.363060 -1.794630 0.839290
			CHANNELS 3 Zrotation Yrotation Xrotation
			JOINT LeftLeg
			{
				OFFSET 2.448110 -6.726130 0.000000
				CHANNELS 3 Zrotation Yrotation Xrotation
				JOINT LeftFoot
				{
					OFFSET 2.562200 -7.039590 0.000000
					CHANNELS 3 Zrotation Yrotation Xrotation
					JOINT LeftToeBase
					{
						OFFSET 0.157640 -0.433110 2.322550
						CHANNELS 3 Zrotation Yrotation Xrotation
						End Site
						{
							OFFSET 0.000000 0.000000 0.000000
						}
					}
				}
			}
		}
	}
	JOINT RHipJoint
	{
		OFFSET 0.000000 0.000000 0.000000
		CHANNELS 3 Zrotation Yrotation Xrotation
		JOINT RightUpLeg
		{
			OFFSET -1.305520 -1.794630 0.839290
			CHANNELS 3 Zrotation Yrotation Xrotation
			JOINT RightLeg
			{
				OFFSET -2.542530 -6.985550 0.000000
				CHANNELS 3 Zrotation Yrotation Xrotation
				JOINT RightFoot
				{
					OFFSET -2.568260 -7.056230 0.000000
					CHANNELS 3 Zrotation Yrotation Xrotation
					JOINT RightToeBase
					{
						OFFSET -0.164730 -0.452590 2.363150
						CHANNELS 3 Zrotation Yrotation Xrotation
						End Site
						{
							OFFSET 0.000000 0.000000 0.000000
						}
					}
				}
			}
		}
	}
}
MOTION
Frames: 11
Frame Time: 0.008333
-22.393955 16.588240 -2.549960 -80.025749 89.408373 -63.032782 -11.692033 3.435971 -0.554975 -5.056351 8.921382 3.579092 -1.604384 -0.080235 11.625484 0.985547 6.353380 -5.447591 0.144400 -0.000001 -67.964100 7.799449 -0.721714 4.571580 7.426697 6.333100 -44.351457 2.878880 0.085547 9.872038 -0.375291 -3.426205 8.245921 -1.990300 0.000000 -32.211700
-22.230907 16.612528 -2.526393 -77.264072 88.991333 -60.353356 -11.841193 3.450519 -0.542958 -4.351147 8.832725 3.520899 -1.423181 0.075703 12.727986 0.985210 6.640056 -3.953986 0.345800 -0.000000 -70.869000 7.659943 -0.882816 4.542299 8.019230 6.768244 -44.050395 2.860397 -0.055530 10.790827 -0.405750 -3.636669 8.642495 -2.078399 0.000000 -32.207399
-22.067260 16.639303 -2.500396 -75.356292 88.583249 -58.529613 -11.982562 3.466430 -0.535244 -3.677558 8.751072 3.357318 -1.233402 0.242221 13.999119 0.993950 6.940722 -2.314184 0.571301 -0.000000 -73.640700 7.526240 -1.030852 4.519425 8.585803 7.210356 -43.690490 2.847916 -0.179039 11.653441 -0.431569 -3.783615 8.815937 -2.130201 0.000000 -32.130600
-21.903417 16.668275 -2.473105 -74.367751 88.168089 -57.640198 -12.133494 3.477303 -0.541763 -2.981082 8.734494 3.074145 -1.033473 0.418780 15.469304 1.008280 7.203918 -0.520726 0.815199 -0.000000 -76.140900 7.385105 -1.172924 4.500355 9.159088 7.665308 -43.215392 2.847189 -0.277482 12.393678 -0.458605 -3.912836 8.793216 -2.162700 -0.000001 -31.972500
-21.739302 16.699041 -2.443206 -73.782753 87.781738 -57.152766 -12.276542 3.486686 -0.549038 -2.322260 8.741307 2.646400 -0.825516 0.599896 17.138391 1.036441 7.467364 1.428091 1.078600 0.000001 -78.161200 7.255350 -1.301266 4.487897 9.701830 8.093834 -42.659256 2.854452 -0.351815 13.012053 -0.486071 -4.017876 8.584719 -2.173500 -0.000001 -31.746300
-21.575364 16.731278 -2.410677 -73.526594 87.434218 -56.988567 -12.410051 3.491928 -0.553447 -1.712460 8.769458 2.061203 -0.611372 0.779887 19.005821 1.082815 7.738771 3.515164 1.359100 0.000000 -79.510600 7.140344 -1.415705 4.481597 10.211596 8.477332 -42.024387 2.869881 -0.400665 13.487247 -0.515207 -4.111059 8.223523 -2.168899 -0.000000 -31.460099
-21.412091 16.764653 -2.376153 -73.642436 87.121396 -57.191142 -12.538570 3.486462 -0.554943 -1.141262 8.827902 1.315063 -0.393590 0.952329 21.064621 1.150338 8.019404 5.699963 1.651900 -0.000000 -80.006000 7.035749 -1.520073 4.480948 10.702273 8.810464 -41.302652 2.895400 -0.422228 13.791401 -0.547861 -4.211486 7.755138 -2.158400 0.000000 -31.119200
-21.249749 16.798890 -2.339756 -74.030185 86.848218 -57.655436 -12.657936 3.465953 -0.549726 -0.625426 8.902170 0.409179 -0.177852 1.110409 23.295715 1.242646 8.335698 7.916224 1.957200 -0.000000 -79.488000 6.944380 -1.614756 4.485962 11.171864 9.081007 -40.509289 2.930199 -0.417720 13.921535 -0.583329 -4.319903 7.218452 -2.144400 -0.000000 -30.736301
-21.088761 16.833668 -2.301447 -74.540725 86.622941 -58.226837 -12.760088 3.428361 -0.534433 -0.194329 8.971455 -0.649094 0.027711 1.249121 25.673254 1.360936 8.724410 10.075414 2.281100 0.000001 -77.846500 6.872652 -1.698214 4.495326 11.609532 9.273038 -39.670152 2.971977 -0.390496 13.893304 -0.618685 -4.422285 6.643696 -2.123999 0.000000 -30.325500
-20.929638 16.868735 -2.261897 -75.142683 86.437272 -58.875985 -12.845702 3.369718 -0.512098 0.154455 9.036971 -1.845144 0.215694 1.366997 28.172355 1.500988 9.203431 12.071709 2.626799 -0.000000 -75.083100 6.817276 -1.773368 4.508050 12.023436 9.389853 -38.792777 3.020685 -0.342781 13.712685 -0.652389 -4.516438 6.065222 -2.099400 -0.000000 -29.898200
-20.772540 16.903832 -2.221497 -75.731305 86.287059 -59.499202 -12.912079 3.290016 -0.486305 0.413957 9.096233 -3.161060 0.379613 1.466245 30.763224 1.656435 9.794281 13.800601 2.999500 0.000001 -71.323199 6.778796 -1.840796 4.522274 12.412385 9.433051 -37.891951 3.074872 -0.278509 13.401723 -0.681391 -4.588954 5.504343 -2.068300 0.000000 -29.466500
